<svg width="711" height="174" viewBox="0 0 711 174" fill="none" xmlns="http://www.w3.org/2000/svg">
<path d="M208.432 66.728C212.869 66.728 216.88 67.5813 220.464 69.288C224.048 70.9947 227.077 73.5973 229.552 77.096H230.192L231.728 68.008H242.736V137.896C242.736 144.381 241.584 149.843 239.28 154.28C236.976 158.717 233.435 162.045 228.656 164.264C223.963 166.568 218.032 167.72 210.864 167.72C205.915 167.72 201.349 167.379 197.168 166.696C192.987 166.013 189.147 164.947 185.648 163.496V151.592C188.123 152.787 190.725 153.768 193.456 154.536C196.187 155.389 199.088 155.987 202.16 156.328C205.232 156.755 208.389 156.968 211.632 156.968C217.264 156.968 221.616 155.347 224.688 152.104C227.76 148.947 229.296 144.467 229.296 138.664V136.36C229.296 135.251 229.339 133.8 229.424 132.008C229.509 130.131 229.595 128.765 229.68 127.912H229.168C226.779 131.496 223.835 134.141 220.336 135.848C216.923 137.469 212.955 138.28 208.432 138.28C199.728 138.28 192.901 135.165 187.952 128.936C183.088 122.621 180.656 113.875 180.656 102.696C180.656 95.1867 181.765 88.7867 183.984 83.496C186.203 78.12 189.36 73.9813 193.456 71.08C197.637 68.1787 202.629 66.728 208.432 66.728ZM211.248 77.992C207.664 77.992 204.635 78.9733 202.16 80.936C199.685 82.8133 197.808 85.5867 196.528 89.256C195.248 92.9253 194.608 97.448 194.608 102.824C194.608 110.845 196.016 116.947 198.832 121.128C201.733 125.309 205.957 127.4 211.504 127.4C214.747 127.4 217.477 126.973 219.696 126.12C222 125.267 223.877 123.944 225.328 122.152C226.864 120.36 227.973 118.099 228.656 115.368C229.424 112.552 229.808 109.181 229.808 105.256V102.696C229.808 96.808 229.125 92.072 227.76 88.488C226.48 84.8187 224.475 82.1733 221.744 80.552C219.013 78.8453 215.515 77.992 211.248 77.992ZM291.135 66.728C297.194 66.728 302.399 68.008 306.751 70.568C311.103 73.0427 314.431 76.6267 316.735 81.32C319.124 86.0133 320.319 91.56 320.319 97.96V105.384H273.983C274.154 112.467 275.988 117.885 279.487 121.64C283.071 125.395 288.063 127.272 294.463 127.272C298.9 127.272 302.826 126.888 306.239 126.12C309.738 125.267 313.322 124.029 316.991 122.408V133.672C313.578 135.208 310.079 136.36 306.495 137.128C302.996 137.896 298.815 138.28 293.951 138.28C287.295 138.28 281.407 136.957 276.287 134.312C271.167 131.667 267.156 127.741 264.255 122.536C261.439 117.245 260.031 110.76 260.031 103.08C260.031 95.3147 261.311 88.744 263.871 83.368C266.516 77.992 270.143 73.896 274.751 71.08C279.444 68.1787 284.906 66.728 291.135 66.728ZM291.135 77.224C286.271 77.224 282.346 78.8027 279.359 81.96C276.458 85.1173 274.751 89.5973 274.239 95.4H306.751C306.751 91.816 306.196 88.6587 305.087 85.928C303.978 83.1973 302.271 81.064 299.967 79.528C297.663 77.992 294.719 77.224 291.135 77.224ZM398.049 102.44C398.049 108.157 397.281 113.235 395.745 117.672C394.209 122.109 392.033 125.864 389.217 128.936C386.401 132.008 382.988 134.355 378.977 135.976C374.966 137.512 370.444 138.28 365.409 138.28C360.801 138.28 356.534 137.512 352.609 135.976C348.684 134.355 345.27 132.008 342.369 128.936C339.553 125.864 337.334 122.109 335.713 117.672C334.092 113.235 333.281 108.115 333.281 102.312C333.281 94.7173 334.561 88.2747 337.121 82.984C339.766 77.6933 343.521 73.6827 348.385 70.952C353.334 68.136 359.137 66.728 365.793 66.728C372.108 66.728 377.654 68.136 382.433 70.952C387.297 73.6827 391.094 77.6933 393.825 82.984C396.641 88.2747 398.049 94.76 398.049 102.44ZM347.233 102.44C347.233 107.56 347.873 111.997 349.153 115.752C350.433 119.421 352.438 122.237 355.169 124.2C357.9 126.163 361.398 127.144 365.665 127.144C369.932 127.144 373.43 126.163 376.161 124.2C378.892 122.237 380.897 119.421 382.177 115.752C383.457 111.997 384.097 107.56 384.097 102.44C384.097 97.1493 383.414 92.712 382.049 89.128C380.769 85.544 378.764 82.8133 376.033 80.936C373.388 78.9733 369.889 77.992 365.537 77.992C359.137 77.992 354.486 80.1253 351.585 84.392C348.684 88.6587 347.233 94.6747 347.233 102.44ZM461.073 117.544C461.073 122.067 459.964 125.864 457.745 128.936C455.526 132.008 452.326 134.355 448.145 135.976C443.964 137.512 438.929 138.28 433.041 138.28C428.177 138.28 423.996 137.896 420.497 137.128C417.084 136.445 413.926 135.421 411.025 134.056V122.152C414.097 123.603 417.638 124.925 421.649 126.12C425.66 127.229 429.585 127.784 433.425 127.784C438.545 127.784 442.214 126.973 444.433 125.352C446.737 123.731 447.889 121.555 447.889 118.824C447.889 117.288 447.462 115.923 446.609 114.728C445.756 113.448 444.134 112.168 441.745 110.888C439.441 109.523 436.028 107.987 431.505 106.28C427.153 104.488 423.441 102.739 420.369 101.032C417.297 99.24 414.95 97.1493 413.329 94.76C411.708 92.2853 410.897 89.128 410.897 85.288C410.897 79.3147 413.286 74.7493 418.065 71.592C422.929 68.3493 429.329 66.728 437.265 66.728C441.446 66.728 445.372 67.1547 449.041 68.008C452.796 68.776 456.422 69.9707 459.921 71.592L455.441 81.96C453.478 81.0213 451.43 80.2533 449.297 79.656C447.249 78.9733 445.158 78.4187 443.025 77.992C440.977 77.5653 438.844 77.352 436.625 77.352C432.529 77.352 429.414 77.992 427.281 79.272C425.148 80.552 424.081 82.344 424.081 84.648C424.081 86.2693 424.55 87.6773 425.489 88.872C426.513 90.0667 428.262 91.2613 430.737 92.456C433.212 93.6507 436.582 95.1013 440.849 96.808C445.116 98.4293 448.742 100.093 451.729 101.8C454.801 103.507 457.105 105.597 458.641 108.072C460.262 110.547 461.073 113.704 461.073 117.544ZM490.817 68.008V137H477.249V68.008H490.817ZM484.161 41.768C486.209 41.768 488.001 42.3653 489.537 43.56C491.073 44.7547 491.841 46.76 491.841 49.576C491.841 52.3067 491.073 54.312 489.537 55.592C488.001 56.7867 486.209 57.384 484.161 57.384C481.942 57.384 480.065 56.7867 478.529 55.592C477.078 54.312 476.353 52.3067 476.353 49.576C476.353 46.76 477.078 44.7547 478.529 43.56C480.065 42.3653 481.942 41.768 484.161 41.768ZM535.932 66.728C540.369 66.728 544.38 67.5813 547.964 69.288C551.548 70.9947 554.577 73.5973 557.052 77.096H557.692L559.228 68.008H570.236V137.896C570.236 144.381 569.084 149.843 566.78 154.28C564.476 158.717 560.935 162.045 556.156 164.264C551.463 166.568 545.532 167.72 538.364 167.72C533.415 167.72 528.849 167.379 524.668 166.696C520.487 166.013 516.647 164.947 513.148 163.496V151.592C515.623 152.787 518.225 153.768 520.956 154.536C523.687 155.389 526.588 155.987 529.66 156.328C532.732 156.755 535.889 156.968 539.132 156.968C544.764 156.968 549.116 155.347 552.188 152.104C555.26 148.947 556.796 144.467 556.796 138.664V136.36C556.796 135.251 556.839 133.8 556.924 132.008C557.009 130.131 557.095 128.765 557.18 127.912H556.668C554.279 131.496 551.335 134.141 547.836 135.848C544.423 137.469 540.455 138.28 535.932 138.28C527.228 138.28 520.401 135.165 515.452 128.936C510.588 122.621 508.156 113.875 508.156 102.696C508.156 95.1867 509.265 88.7867 511.484 83.496C513.703 78.12 516.86 73.9813 520.956 71.08C525.137 68.1787 530.129 66.728 535.932 66.728ZM538.748 77.992C535.164 77.992 532.135 78.9733 529.66 80.936C527.185 82.8133 525.308 85.5867 524.028 89.256C522.748 92.9253 522.108 97.448 522.108 102.824C522.108 110.845 523.516 116.947 526.332 121.128C529.233 125.309 533.457 127.4 539.004 127.4C542.247 127.4 544.977 126.973 547.196 126.12C549.5 125.267 551.377 123.944 552.828 122.152C554.364 120.36 555.473 118.099 556.156 115.368C556.924 112.552 557.308 109.181 557.308 105.256V102.696C557.308 96.808 556.625 92.072 555.26 88.488C553.98 84.8187 551.975 82.1733 549.244 80.552C546.513 78.8453 543.015 77.992 538.748 77.992ZM605.067 65.704C605.067 67.8373 604.982 69.9707 604.811 72.104C604.64 74.2373 604.47 75.9867 604.299 77.352H605.195C606.646 74.9627 608.438 73 610.571 71.464C612.79 69.928 615.222 68.776 617.867 68.008C620.598 67.24 623.371 66.856 626.187 66.856C631.648 66.856 636.214 67.752 639.883 69.544C643.638 71.2507 646.454 73.9813 648.331 77.736C650.294 81.4053 651.275 86.184 651.275 92.072V137H637.835V93.992C637.835 88.616 636.683 84.6053 634.379 81.96C632.16 79.2293 628.576 77.864 623.627 77.864C618.934 77.864 615.222 78.8027 612.491 80.68C609.846 82.5573 607.926 85.3307 606.731 89C605.622 92.584 605.067 97.0213 605.067 102.312V137H591.499V39.72H605.067V65.704ZM696.956 127.272C698.748 127.272 700.583 127.101 702.46 126.76C704.337 126.419 705.959 126.035 707.324 125.608V135.848C705.873 136.531 703.911 137.085 701.436 137.512C698.961 138.024 696.487 138.28 694.012 138.28C690.257 138.28 686.801 137.64 683.644 136.36C680.572 135.08 678.097 132.861 676.22 129.704C674.343 126.547 673.404 122.152 673.404 116.52V78.376H663.804V72.232L673.916 67.112L678.652 52.52H686.972V68.008H706.684V78.376H686.972V116.264C686.972 120.019 687.868 122.792 689.66 124.584C691.537 126.376 693.969 127.272 696.956 127.272Z" fill="#026FEB"/>
<path d="M58.5479 161.361C51.0865 163.748 45.8095 158.875 44.1037 156.141L39.0689 148.849L33.869 141.06L46.0846 132.773L55.6591 146.611L68.37 141.888L73.5699 155.644C70.9286 156.666 64.2265 159.24 58.5479 161.361Z" fill="#026FEB"/>
<path d="M98.0838 130.619L103.366 144.54C106.2 143.463 113.238 140.778 118.718 138.657C125.123 135.541 125.817 129.21 125.817 126.31C125.817 123.41 125.899 113.797 125.899 113.797H111.042L110.96 125.813L98.0838 130.619Z" fill="#026FEB"/>
<path d="M110.96 75.3485L111.125 86.038H125.817C125.817 83.8559 126.229 75.597 125.817 70.9567C125.013 61.9253 116.737 59.7701 113.106 60.0187C109.474 60.2673 99.2393 62.0074 99.2393 62.0074L101.385 76.6744L110.96 75.3485Z" fill="#026FEB"/>
<path d="M75.7159 80.3204L50.7893 84.0492L48.6433 69.3823L73.4873 65.8192L75.7159 80.3204Z" fill="#026FEB"/>
<path d="M23.0565 73.1112L25.1199 87.6952L16.4534 89.1868L24.7898 101.451L12.5741 109.654L1.67909 93.4957C-3.68588 83.3034 5.1457 75.9286 9.43769 75.1828C13.7297 74.437 23.0565 73.1112 23.0565 73.1112Z" fill="#026FEB"/>
</svg>
